<?xml version="1.0" standalone="no"?>
<!DOCTYPE svg PUBLIC "-//W3C//DTD SVG 20010904//EN"
 "http://www.w3.org/TR/2001/REC-SVG-20010904/DTD/svg10.dtd">
<svg version="1.0" xmlns="http://www.w3.org/2000/svg"
 width="350.000000pt" height="350.000000pt" viewBox="0 0 350.000000 350.000000"
 preserveAspectRatio="xMidYMid meet">
<metadata>
Created by potrace 1.11, written by Peter Selinger 2001-2013
</metadata>
<g transform="translate(0.000000,350.000000) scale(0.100000,-0.100000)"
fill="#000000" stroke="none">
<path d="M395 3481 c-33 -10 -74 -25 -90 -32 -97 -44 -200 -145 -247 -240 -61
-125 -58 -51 -55 -1474 1 -715 6 -1313 10 -1329 47 -177 175 -316 347 -378
l65 -23 1330 0 1330 0 70 29 c156 65 261 173 317 327 l23 64 0 1325 0 1325
-24 65 c-60 163 -173 275 -336 331 l-80 28 -1300 0 c-1220 0 -1304 -2 -1360
-18z m129 -348 c3 -10 10 -40 15 -68 8 -38 127 -585 146 -665 2 -8 4 -22 4
-29 2 -35 22 12 50 119 16 63 39 151 51 195 58 216 82 307 101 383 l21 82 143
0 143 0 47 -187 c26 -104 48 -196 50 -206 2 -10 7 -27 10 -37 3 -10 8 -28 10
-39 3 -12 7 -29 9 -38 3 -10 19 -74 35 -143 32 -129 48 -178 51 -150 1 8 3 22
5 30 6 22 35 152 39 175 2 11 33 149 67 307 l64 288 118 0 c73 0 117 -4 117
-10 0 -6 -16 -77 -36 -158 -47 -194 -85 -353 -89 -372 -2 -8 -15 -62 -30 -120
-15 -58 -28 -112 -30 -120 -5 -26 -86 -364 -91 -383 -5 -16 -18 -17 -132 -15
l-127 3 -58 215 c-31 118 -82 306 -112 418 -30 111 -55 210 -55 219 0 40 -20
-11 -55 -142 -20 -77 -38 -148 -40 -157 -2 -9 -13 -50 -24 -90 -26 -93 -90
-337 -96 -363 -3 -11 -10 -39 -17 -63 l-13 -43 -129 3 -130 3 -37 155 c-20 85
-65 272 -99 415 -34 143 -63 267 -65 275 -2 8 -19 82 -39 163 -20 81 -36 152
-36 157 0 6 50 10 119 10 105 0 120 -2 125 -17z m2281 -86 l0 -97 -175 0 -176
0 1 -481 c0 -264 -3 -485 -6 -490 -3 -6 -56 -8 -120 -7 l-114 3 1 488 0 487
-173 0 c-95 0 -173 3 -174 8 -1 4 -2 49 -3 100 l-2 92 470 -2 470 -3 1 -98z
m152 -1431 c68 -24 130 -65 172 -112 62 -70 76 -108 76 -199 0 -124 -13 -144
-243 -357 -62 -58 -70 -74 -76 -158 l-2 -35 -104 -3 -103 -3 5 83 c8 131 45
186 221 332 72 60 91 94 85 156 -11 110 -125 173 -255 141 -66 -17 -111 -54
-140 -117 l-24 -53 -62 6 c-34 3 -73 7 -87 8 -14 2 -32 3 -41 4 -15 1 -16 7
-7 44 29 134 149 245 300 277 60 13 234 4 285 -14z m-1857 -96 l0 -100 -285 0
-285 0 0 -140 0 -140 245 0 c135 0 245 -3 246 -7 0 -5 1 -50 2 -101 l2 -92
-247 0 -248 0 0 -250 0 -250 -120 0 -120 0 0 590 0 590 405 0 405 0 0 -100z
m373 -2 c19 -57 86 -251 148 -431 62 -180 115 -324 119 -320 3 4 69 198 146
430 l139 423 127 0 128 0 -20 -52 c-10 -29 -71 -199 -135 -378 -64 -179 -151
-421 -193 -537 l-76 -213 -127 0 -127 0 -10 28 c-5 15 -53 149 -106 297 -54
149 -120 333 -147 410 -50 139 -147 409 -156 433 -4 9 25 12 125 12 l130 0 35
-102z m1433 -963 l0 -115 -113 0 -113 0 0 115 0 115 113 0 113 0 0 -115z"/>
</g>
</svg>
